<mxfile host="app.diagrams.net" modified="2021-09-22T20:26:38.965Z" agent="5.0 (Macintosh)" etag="uPtsntsjBq-7ufN1kxv6" version="15.2.9" type="github">
  <diagram id="9ruZ7lIHfwIDMkIMnSRF" name="Page-1">
    <mxGraphModel dx="378" dy="210" grid="0" gridSize="10" guides="1" tooltips="1" connect="1" arrows="1" fold="1" page="0" pageScale="1" pageWidth="850" pageHeight="1100" math="0" shadow="0">
      <root>
        <mxCell id="0" />
        <mxCell id="1" parent="0" />
        <mxCell id="1oKYoXXWQTvSqcj3fdGV-1" value="BDSA" style="swimlane;childLayout=stackLayout;resizeParent=1;resizeParentMax=0;horizontal=0;startSize=20;horizontalStack=0;direction=east;" parent="1" vertex="1">
          <mxGeometry x="40" y="680" width="840" height="410" as="geometry">
            <mxRectangle x="180" y="230" width="30" height="60" as="alternateBounds" />
          </mxGeometry>
        </mxCell>
        <mxCell id="1oKYoXXWQTvSqcj3fdGV-2" value="Student" style="swimlane;startSize=20;horizontal=0;" parent="1oKYoXXWQTvSqcj3fdGV-1" vertex="1">
          <mxGeometry x="20" width="820" height="160" as="geometry" />
        </mxCell>
        <mxCell id="8XiK232bwKAHNI2Cz1TA-95" value="" style="ellipse;html=1;shape=endState;fillColor=#000000;strokeColor=#000000;" vertex="1" parent="1oKYoXXWQTvSqcj3fdGV-2">
          <mxGeometry x="780" y="55" width="30" height="30" as="geometry" />
        </mxCell>
        <mxCell id="8XiK232bwKAHNI2Cz1TA-130" value="Verify exam grade" style="html=1;shape=mxgraph.infographic.ribbonSimple;notch1=20;notch2=0;align=center;verticalAlign=middle;fontSize=14;fontStyle=0;fillColor=#FFFFFF;flipH=0;spacingRight=0;spacingLeft=14;rotation=0;" vertex="1" parent="1oKYoXXWQTvSqcj3fdGV-2">
          <mxGeometry x="627" y="50" width="135" height="40" as="geometry" />
        </mxCell>
        <mxCell id="8XiK232bwKAHNI2Cz1TA-140" value="" style="endArrow=classic;html=1;exitX=1;exitY=0.5;exitDx=0;exitDy=0;exitPerimeter=0;entryX=0;entryY=0.5;entryDx=0;entryDy=0;" edge="1" parent="1oKYoXXWQTvSqcj3fdGV-2" source="8XiK232bwKAHNI2Cz1TA-130" target="8XiK232bwKAHNI2Cz1TA-95">
          <mxGeometry width="50" height="50" relative="1" as="geometry">
            <mxPoint x="750" y="160" as="sourcePoint" />
            <mxPoint x="800" y="110" as="targetPoint" />
          </mxGeometry>
        </mxCell>
        <mxCell id="8XiK232bwKAHNI2Cz1TA-110" value="[Participated in an exam simulation]" style="text;html=1;strokeColor=none;fillColor=none;align=center;verticalAlign=middle;whiteSpace=wrap;rounded=0;fontSize=8;" vertex="1" parent="1oKYoXXWQTvSqcj3fdGV-2">
          <mxGeometry x="106" y="123" width="55" height="30" as="geometry" />
        </mxCell>
        <mxCell id="8XiK232bwKAHNI2Cz1TA-96" value="MA1" style="rounded=1;whiteSpace=wrap;html=1;" vertex="1" parent="1oKYoXXWQTvSqcj3fdGV-2">
          <mxGeometry x="130" y="90" width="65" height="30" as="geometry" />
        </mxCell>
        <mxCell id="8XiK232bwKAHNI2Cz1TA-97" value="" style="ellipse;html=1;shape=endState;fillColor=#000000;strokeColor=none;" vertex="1" parent="1oKYoXXWQTvSqcj3fdGV-2">
          <mxGeometry x="50" y="46" width="30" height="30" as="geometry" />
        </mxCell>
        <mxCell id="8XiK232bwKAHNI2Cz1TA-98" value="" style="endArrow=none;html=1;" edge="1" parent="1oKYoXXWQTvSqcj3fdGV-2">
          <mxGeometry width="50" height="50" relative="1" as="geometry">
            <mxPoint x="110.00000000000023" y="86" as="sourcePoint" />
            <mxPoint x="110.00000000000023" y="35.999999999999886" as="targetPoint" />
          </mxGeometry>
        </mxCell>
        <mxCell id="8XiK232bwKAHNI2Cz1TA-99" value="&lt;div&gt;MA2&lt;/div&gt;" style="rounded=1;whiteSpace=wrap;html=1;" vertex="1" parent="1oKYoXXWQTvSqcj3fdGV-2">
          <mxGeometry x="210" y="90" width="65" height="30" as="geometry" />
        </mxCell>
        <mxCell id="8XiK232bwKAHNI2Cz1TA-100" value="MA3" style="rounded=1;whiteSpace=wrap;html=1;" vertex="1" parent="1oKYoXXWQTvSqcj3fdGV-2">
          <mxGeometry x="290" y="90" width="65" height="30" as="geometry" />
        </mxCell>
        <mxCell id="8XiK232bwKAHNI2Cz1TA-117" value="" style="endArrow=openThin;html=1;endFill=0;" edge="1" parent="1oKYoXXWQTvSqcj3fdGV-2">
          <mxGeometry width="50" height="50" relative="1" as="geometry">
            <mxPoint x="70.00000000000023" y="61" as="sourcePoint" />
            <mxPoint x="110.00000000000023" y="61" as="targetPoint" />
          </mxGeometry>
        </mxCell>
        <mxCell id="8XiK232bwKAHNI2Cz1TA-118" value="" style="endArrow=openThin;html=1;endFill=0;entryX=0.5;entryY=0;entryDx=0;entryDy=0;" edge="1" parent="1oKYoXXWQTvSqcj3fdGV-2" target="8XiK232bwKAHNI2Cz1TA-96">
          <mxGeometry width="50" height="50" relative="1" as="geometry">
            <mxPoint x="110.00000000000023" y="76" as="sourcePoint" />
            <mxPoint x="120" y="76" as="targetPoint" />
            <Array as="points">
              <mxPoint x="163" y="76" />
            </Array>
          </mxGeometry>
        </mxCell>
        <mxCell id="8XiK232bwKAHNI2Cz1TA-119" value="" style="endArrow=openThin;html=1;endFill=0;entryX=0.5;entryY=0;entryDx=0;entryDy=0;" edge="1" parent="1oKYoXXWQTvSqcj3fdGV-2" target="8XiK232bwKAHNI2Cz1TA-99">
          <mxGeometry width="50" height="50" relative="1" as="geometry">
            <mxPoint x="110.00000000000023" y="66" as="sourcePoint" />
            <mxPoint x="172.5" y="100" as="targetPoint" />
            <Array as="points">
              <mxPoint x="240" y="66" />
            </Array>
          </mxGeometry>
        </mxCell>
        <mxCell id="8XiK232bwKAHNI2Cz1TA-120" value="" style="endArrow=openThin;html=1;endFill=0;entryX=0.5;entryY=0;entryDx=0;entryDy=0;" edge="1" parent="1oKYoXXWQTvSqcj3fdGV-2" target="8XiK232bwKAHNI2Cz1TA-100">
          <mxGeometry width="50" height="50" relative="1" as="geometry">
            <mxPoint x="110.00000000000023" y="56" as="sourcePoint" />
            <mxPoint x="182.5" y="110" as="targetPoint" />
            <Array as="points">
              <mxPoint x="323" y="56" />
            </Array>
          </mxGeometry>
        </mxCell>
        <mxCell id="8XiK232bwKAHNI2Cz1TA-121" value="" style="endArrow=openThin;html=1;endFill=0;entryX=0.5;entryY=0;entryDx=0;entryDy=0;" edge="1" parent="1oKYoXXWQTvSqcj3fdGV-2">
          <mxGeometry width="50" height="50" relative="1" as="geometry">
            <mxPoint x="110.00000000000023" y="45.999999999999886" as="sourcePoint" />
            <mxPoint x="402.5" y="90" as="targetPoint" />
            <Array as="points">
              <mxPoint x="403" y="46" />
            </Array>
          </mxGeometry>
        </mxCell>
        <mxCell id="8XiK232bwKAHNI2Cz1TA-109" value="&lt;div&gt;[Participated in &lt;br&gt;&lt;/div&gt;&lt;div&gt;sufficient weekly&lt;/div&gt;&lt;div&gt;activities]&lt;/div&gt;" style="text;html=1;strokeColor=none;fillColor=none;align=center;verticalAlign=middle;whiteSpace=wrap;rounded=0;fontSize=8;" vertex="1" parent="1oKYoXXWQTvSqcj3fdGV-2">
          <mxGeometry x="154" y="127" width="105" height="20" as="geometry" />
        </mxCell>
        <mxCell id="8XiK232bwKAHNI2Cz1TA-111" value="[Participated in project reviews]" style="text;html=1;strokeColor=none;fillColor=none;align=center;verticalAlign=middle;whiteSpace=wrap;rounded=0;fontSize=8;" vertex="1" parent="1oKYoXXWQTvSqcj3fdGV-2">
          <mxGeometry x="252" y="122" width="70" height="20" as="geometry" />
        </mxCell>
        <mxCell id="8XiK232bwKAHNI2Cz1TA-112" value="[Participated in project demo]" style="text;html=1;strokeColor=none;fillColor=none;align=center;verticalAlign=middle;whiteSpace=wrap;rounded=0;fontSize=8;" vertex="1" parent="1oKYoXXWQTvSqcj3fdGV-2">
          <mxGeometry x="329" y="122" width="80" height="20" as="geometry" />
        </mxCell>
        <mxCell id="8XiK232bwKAHNI2Cz1TA-101" value="MA4" style="rounded=1;whiteSpace=wrap;html=1;" vertex="1" parent="1oKYoXXWQTvSqcj3fdGV-2">
          <mxGeometry x="370" y="90" width="65" height="30" as="geometry" />
        </mxCell>
        <mxCell id="1oKYoXXWQTvSqcj3fdGV-3" value="Teaching team" style="swimlane;startSize=20;horizontal=0;direction=east;" parent="1oKYoXXWQTvSqcj3fdGV-1" vertex="1">
          <mxGeometry x="20" y="160" width="820" height="130" as="geometry">
            <mxRectangle x="20" y="120" width="690" height="20" as="alternateBounds" />
          </mxGeometry>
        </mxCell>
        <mxCell id="8XiK232bwKAHNI2Cz1TA-102" value="Exam" style="rounded=1;whiteSpace=wrap;html=1;" vertex="1" parent="1oKYoXXWQTvSqcj3fdGV-3">
          <mxGeometry x="508" y="-75" width="65" height="30" as="geometry" />
        </mxCell>
        <mxCell id="8XiK232bwKAHNI2Cz1TA-104" value="Confirm MA1" style="rounded=1;whiteSpace=wrap;html=1;" vertex="1" parent="1oKYoXXWQTvSqcj3fdGV-3">
          <mxGeometry x="130" y="30" width="65" height="30" as="geometry" />
        </mxCell>
        <mxCell id="8XiK232bwKAHNI2Cz1TA-105" value="Confirm MA2" style="rounded=1;whiteSpace=wrap;html=1;" vertex="1" parent="1oKYoXXWQTvSqcj3fdGV-3">
          <mxGeometry x="210" y="30" width="65" height="30" as="geometry" />
        </mxCell>
        <mxCell id="8XiK232bwKAHNI2Cz1TA-106" value="Confirm MA3" style="rounded=1;whiteSpace=wrap;html=1;" vertex="1" parent="1oKYoXXWQTvSqcj3fdGV-3">
          <mxGeometry x="290" y="30" width="65" height="30" as="geometry" />
        </mxCell>
        <mxCell id="8XiK232bwKAHNI2Cz1TA-107" value="Confirm MA4" style="rounded=1;whiteSpace=wrap;html=1;" vertex="1" parent="1oKYoXXWQTvSqcj3fdGV-3">
          <mxGeometry x="370" y="30" width="65" height="30" as="geometry" />
        </mxCell>
        <mxCell id="8XiK232bwKAHNI2Cz1TA-113" value="[Approved]" style="text;html=1;strokeColor=none;fillColor=none;align=center;verticalAlign=middle;whiteSpace=wrap;rounded=0;fontSize=8;" vertex="1" parent="1oKYoXXWQTvSqcj3fdGV-3">
          <mxGeometry x="110" y="62" width="55" height="10" as="geometry" />
        </mxCell>
        <mxCell id="8XiK232bwKAHNI2Cz1TA-114" value="[Approved]" style="text;html=1;strokeColor=none;fillColor=none;align=center;verticalAlign=middle;whiteSpace=wrap;rounded=0;fontSize=8;" vertex="1" parent="1oKYoXXWQTvSqcj3fdGV-3">
          <mxGeometry x="193" y="62" width="55" height="10" as="geometry" />
        </mxCell>
        <mxCell id="8XiK232bwKAHNI2Cz1TA-115" value="[Approved]" style="text;html=1;strokeColor=none;fillColor=none;align=center;verticalAlign=middle;whiteSpace=wrap;rounded=0;fontSize=8;" vertex="1" parent="1oKYoXXWQTvSqcj3fdGV-3">
          <mxGeometry x="273" y="62" width="55" height="10" as="geometry" />
        </mxCell>
        <mxCell id="8XiK232bwKAHNI2Cz1TA-116" value="[Approved]" style="text;html=1;strokeColor=none;fillColor=none;align=center;verticalAlign=middle;whiteSpace=wrap;rounded=0;fontSize=8;" vertex="1" parent="1oKYoXXWQTvSqcj3fdGV-3">
          <mxGeometry x="354" y="62" width="55" height="10" as="geometry" />
        </mxCell>
        <mxCell id="8XiK232bwKAHNI2Cz1TA-122" value="" style="endArrow=classic;html=1;exitX=0.5;exitY=1;exitDx=0;exitDy=0;" edge="1" parent="1oKYoXXWQTvSqcj3fdGV-3" source="8XiK232bwKAHNI2Cz1TA-107">
          <mxGeometry width="50" height="50" relative="1" as="geometry">
            <mxPoint x="290" y="70" as="sourcePoint" />
            <mxPoint x="460" y="70" as="targetPoint" />
            <Array as="points">
              <mxPoint x="403" y="70" />
            </Array>
          </mxGeometry>
        </mxCell>
        <mxCell id="8XiK232bwKAHNI2Cz1TA-123" value="" style="endArrow=classic;html=1;exitX=0.5;exitY=1;exitDx=0;exitDy=0;" edge="1" parent="1oKYoXXWQTvSqcj3fdGV-3" source="8XiK232bwKAHNI2Cz1TA-106">
          <mxGeometry width="50" height="50" relative="1" as="geometry">
            <mxPoint x="290" y="70" as="sourcePoint" />
            <mxPoint x="460" y="80" as="targetPoint" />
            <Array as="points">
              <mxPoint x="323" y="80" />
            </Array>
          </mxGeometry>
        </mxCell>
        <mxCell id="8XiK232bwKAHNI2Cz1TA-124" value="" style="endArrow=classic;html=1;exitX=0.5;exitY=1;exitDx=0;exitDy=0;" edge="1" parent="1oKYoXXWQTvSqcj3fdGV-3" source="8XiK232bwKAHNI2Cz1TA-105">
          <mxGeometry width="50" height="50" relative="1" as="geometry">
            <mxPoint x="290" y="70" as="sourcePoint" />
            <mxPoint x="460" y="90" as="targetPoint" />
            <Array as="points">
              <mxPoint x="243" y="90" />
            </Array>
          </mxGeometry>
        </mxCell>
        <mxCell id="8XiK232bwKAHNI2Cz1TA-125" value="" style="endArrow=classic;html=1;exitX=0.5;exitY=1;exitDx=0;exitDy=0;" edge="1" parent="1oKYoXXWQTvSqcj3fdGV-3" source="8XiK232bwKAHNI2Cz1TA-104">
          <mxGeometry width="50" height="50" relative="1" as="geometry">
            <mxPoint x="290" y="70" as="sourcePoint" />
            <mxPoint x="460" y="100" as="targetPoint" />
            <Array as="points">
              <mxPoint x="163" y="100" />
            </Array>
          </mxGeometry>
        </mxCell>
        <mxCell id="8XiK232bwKAHNI2Cz1TA-126" value="" style="endArrow=classic;html=1;entryX=0;entryY=0.5;entryDx=0;entryDy=0;" edge="1" parent="1oKYoXXWQTvSqcj3fdGV-3" target="8XiK232bwKAHNI2Cz1TA-102">
          <mxGeometry width="50" height="50" relative="1" as="geometry">
            <mxPoint x="460" y="86" as="sourcePoint" />
            <mxPoint x="500" y="-64" as="targetPoint" />
            <Array as="points">
              <mxPoint x="480" y="86" />
              <mxPoint x="480" y="-60" />
            </Array>
          </mxGeometry>
        </mxCell>
        <mxCell id="8XiK232bwKAHNI2Cz1TA-108" value="" style="endArrow=none;html=1;" edge="1" parent="1oKYoXXWQTvSqcj3fdGV-3">
          <mxGeometry width="50" height="50" relative="1" as="geometry">
            <mxPoint x="460" y="112" as="sourcePoint" />
            <mxPoint x="460" y="62" as="targetPoint" />
          </mxGeometry>
        </mxCell>
        <mxCell id="8XiK232bwKAHNI2Cz1TA-131" value="Exam result" style="html=1;shape=mxgraph.infographic.ribbonSimple;notch1=0;notch2=20;align=center;verticalAlign=middle;fontSize=14;fontStyle=0;fillColor=#FFFFFF;rotation=0;" vertex="1" parent="1oKYoXXWQTvSqcj3fdGV-3">
          <mxGeometry x="500" y="47.5" width="100" height="35" as="geometry" />
        </mxCell>
        <mxCell id="8XiK232bwKAHNI2Cz1TA-137" value="" style="endArrow=classic;html=1;exitX=0.5;exitY=1;exitDx=0;exitDy=0;entryX=0;entryY=0;entryDx=40;entryDy=0;entryPerimeter=0;" edge="1" parent="1oKYoXXWQTvSqcj3fdGV-3" source="8XiK232bwKAHNI2Cz1TA-102" target="8XiK232bwKAHNI2Cz1TA-131">
          <mxGeometry width="50" height="50" relative="1" as="geometry">
            <mxPoint x="670" y="70" as="sourcePoint" />
            <mxPoint x="720" y="20" as="targetPoint" />
          </mxGeometry>
        </mxCell>
        <mxCell id="2dRDHIkBmzryLjVtjeYa-39" value="SAP" style="swimlane;startSize=20;horizontal=0;direction=east;" parent="1oKYoXXWQTvSqcj3fdGV-1" vertex="1">
          <mxGeometry x="20" y="290" width="820" height="120" as="geometry">
            <mxRectangle x="20" y="120" width="690" height="20" as="alternateBounds" />
          </mxGeometry>
        </mxCell>
        <mxCell id="8XiK232bwKAHNI2Cz1TA-132" value="Register exam" style="html=1;shape=mxgraph.infographic.ribbonSimple;notch1=20;notch2=0;align=center;verticalAlign=middle;fontSize=14;fontStyle=0;fillColor=#FFFFFF;flipH=0;spacingRight=0;spacingLeft=14;rotation=0;" vertex="1" parent="2dRDHIkBmzryLjVtjeYa-39">
          <mxGeometry x="482.5" y="40" width="135" height="40" as="geometry" />
        </mxCell>
        <mxCell id="8XiK232bwKAHNI2Cz1TA-133" value="Exam registered" style="html=1;shape=mxgraph.infographic.ribbonSimple;notch1=0;notch2=20;align=center;verticalAlign=middle;fontSize=14;fontStyle=0;fillColor=#FFFFFF;rotation=0;" vertex="1" parent="2dRDHIkBmzryLjVtjeYa-39">
          <mxGeometry x="638" y="42.5" width="120" height="35" as="geometry" />
        </mxCell>
        <mxCell id="8XiK232bwKAHNI2Cz1TA-138" value="" style="endArrow=classic;html=1;exitX=1;exitY=0.5;exitDx=0;exitDy=0;exitPerimeter=0;entryX=0;entryY=0;entryDx=0;entryDy=17.5;entryPerimeter=0;" edge="1" parent="2dRDHIkBmzryLjVtjeYa-39" source="8XiK232bwKAHNI2Cz1TA-132" target="8XiK232bwKAHNI2Cz1TA-133">
          <mxGeometry width="50" height="50" relative="1" as="geometry">
            <mxPoint x="690" as="sourcePoint" />
            <mxPoint x="740" y="-50" as="targetPoint" />
          </mxGeometry>
        </mxCell>
        <mxCell id="8XiK232bwKAHNI2Cz1TA-136" style="edgeStyle=orthogonalEdgeStyle;rounded=0;orthogonalLoop=1;jettySize=auto;html=1;exitX=0;exitY=0;exitDx=40;exitDy=35;exitPerimeter=0;entryX=0.423;entryY=0.011;entryDx=0;entryDy=0;entryPerimeter=0;" edge="1" parent="1oKYoXXWQTvSqcj3fdGV-1" source="8XiK232bwKAHNI2Cz1TA-131" target="8XiK232bwKAHNI2Cz1TA-132">
          <mxGeometry relative="1" as="geometry" />
        </mxCell>
        <mxCell id="8XiK232bwKAHNI2Cz1TA-139" value="" style="endArrow=classic;html=1;exitX=0;exitY=0;exitDx=50;exitDy=0;exitPerimeter=0;entryX=0.457;entryY=0.996;entryDx=0;entryDy=0;entryPerimeter=0;" edge="1" parent="1oKYoXXWQTvSqcj3fdGV-1" source="8XiK232bwKAHNI2Cz1TA-133" target="8XiK232bwKAHNI2Cz1TA-130">
          <mxGeometry width="50" height="50" relative="1" as="geometry">
            <mxPoint x="710" y="270" as="sourcePoint" />
            <mxPoint x="760" y="220" as="targetPoint" />
          </mxGeometry>
        </mxCell>
        <mxCell id="8XiK232bwKAHNI2Cz1TA-91" value="" style="endArrow=openThin;html=1;endFill=0;exitX=0.5;exitY=1;exitDx=0;exitDy=0;entryX=0.5;entryY=0;entryDx=0;entryDy=0;" edge="1" parent="1oKYoXXWQTvSqcj3fdGV-1" source="8XiK232bwKAHNI2Cz1TA-96" target="8XiK232bwKAHNI2Cz1TA-104">
          <mxGeometry width="50" height="50" relative="1" as="geometry">
            <mxPoint x="103" y="24" as="sourcePoint" />
            <mxPoint x="103" y="74" as="targetPoint" />
          </mxGeometry>
        </mxCell>
        <mxCell id="8XiK232bwKAHNI2Cz1TA-92" value="" style="endArrow=openThin;html=1;endFill=0;exitX=0.5;exitY=1;exitDx=0;exitDy=0;entryX=0.5;entryY=0;entryDx=0;entryDy=0;" edge="1" parent="1oKYoXXWQTvSqcj3fdGV-1" source="8XiK232bwKAHNI2Cz1TA-99" target="8XiK232bwKAHNI2Cz1TA-105">
          <mxGeometry width="50" height="50" relative="1" as="geometry">
            <mxPoint x="-67" y="-196" as="sourcePoint" />
            <mxPoint x="-67" y="-146" as="targetPoint" />
          </mxGeometry>
        </mxCell>
        <mxCell id="8XiK232bwKAHNI2Cz1TA-93" value="" style="endArrow=openThin;html=1;endFill=0;exitX=0.5;exitY=1;exitDx=0;exitDy=0;entryX=0.5;entryY=0;entryDx=0;entryDy=0;" edge="1" parent="1oKYoXXWQTvSqcj3fdGV-1" source="8XiK232bwKAHNI2Cz1TA-100" target="8XiK232bwKAHNI2Cz1TA-106">
          <mxGeometry width="50" height="50" relative="1" as="geometry">
            <mxPoint x="-57" y="-186" as="sourcePoint" />
            <mxPoint x="-57" y="-136" as="targetPoint" />
          </mxGeometry>
        </mxCell>
        <mxCell id="8XiK232bwKAHNI2Cz1TA-94" value="" style="endArrow=openThin;html=1;endFill=0;exitX=0.5;exitY=1;exitDx=0;exitDy=0;entryX=0.5;entryY=0;entryDx=0;entryDy=0;" edge="1" parent="1oKYoXXWQTvSqcj3fdGV-1" source="8XiK232bwKAHNI2Cz1TA-101" target="8XiK232bwKAHNI2Cz1TA-107">
          <mxGeometry width="50" height="50" relative="1" as="geometry">
            <mxPoint x="-47" y="-176" as="sourcePoint" />
            <mxPoint x="-47" y="-126" as="targetPoint" />
          </mxGeometry>
        </mxCell>
        <mxCell id="8XiK232bwKAHNI2Cz1TA-1" value="BDSA" style="swimlane;childLayout=stackLayout;resizeParent=1;resizeParentMax=0;horizontal=0;startSize=20;horizontalStack=0;direction=east;" vertex="1" parent="1">
          <mxGeometry x="947" y="338" width="780" height="390" as="geometry">
            <mxRectangle x="180" y="230" width="30" height="60" as="alternateBounds" />
          </mxGeometry>
        </mxCell>
        <mxCell id="8XiK232bwKAHNI2Cz1TA-2" value="Student" style="swimlane;startSize=20;horizontal=0;" vertex="1" parent="8XiK232bwKAHNI2Cz1TA-1">
          <mxGeometry x="20" width="760" height="140" as="geometry" />
        </mxCell>
        <mxCell id="8XiK232bwKAHNI2Cz1TA-3" value="" style="ellipse;html=1;shape=endState;fillColor=#000000;strokeColor=#000000;" vertex="1" parent="8XiK232bwKAHNI2Cz1TA-2">
          <mxGeometry x="40" y="45" width="30" height="30" as="geometry" />
        </mxCell>
        <mxCell id="8XiK232bwKAHNI2Cz1TA-4" value="MA1" style="rounded=1;whiteSpace=wrap;html=1;" vertex="1" parent="8XiK232bwKAHNI2Cz1TA-2">
          <mxGeometry x="100" y="60" width="65" height="30" as="geometry" />
        </mxCell>
        <mxCell id="8XiK232bwKAHNI2Cz1TA-5" value="MA2" style="rounded=1;whiteSpace=wrap;html=1;" vertex="1" parent="8XiK232bwKAHNI2Cz1TA-2">
          <mxGeometry x="210" y="60" width="65" height="30" as="geometry" />
        </mxCell>
        <mxCell id="8XiK232bwKAHNI2Cz1TA-6" value="MA3" style="rounded=1;whiteSpace=wrap;html=1;" vertex="1" parent="8XiK232bwKAHNI2Cz1TA-2">
          <mxGeometry x="320" y="60" width="65" height="30" as="geometry" />
        </mxCell>
        <mxCell id="8XiK232bwKAHNI2Cz1TA-7" value="MA4" style="rounded=1;whiteSpace=wrap;html=1;" vertex="1" parent="8XiK232bwKAHNI2Cz1TA-2">
          <mxGeometry x="430" y="60" width="65" height="30" as="geometry" />
        </mxCell>
        <mxCell id="8XiK232bwKAHNI2Cz1TA-8" value="Exam" style="rounded=1;whiteSpace=wrap;html=1;" vertex="1" parent="8XiK232bwKAHNI2Cz1TA-2">
          <mxGeometry x="540" y="60" width="65" height="30" as="geometry" />
        </mxCell>
        <mxCell id="8XiK232bwKAHNI2Cz1TA-9" value="" style="ellipse;html=1;shape=endState;fillColor=#000000;strokeColor=none;" vertex="1" parent="8XiK232bwKAHNI2Cz1TA-2">
          <mxGeometry x="652.5" y="90" width="30" height="30" as="geometry" />
        </mxCell>
        <mxCell id="8XiK232bwKAHNI2Cz1TA-10" value="" style="endArrow=none;html=1;exitX=1;exitY=0.5;exitDx=0;exitDy=0;endSize=6;jumpSize=2;" edge="1" parent="8XiK232bwKAHNI2Cz1TA-2" source="8XiK232bwKAHNI2Cz1TA-3">
          <mxGeometry width="50" height="50" relative="1" as="geometry">
            <mxPoint x="130" y="60" as="sourcePoint" />
            <mxPoint x="460" y="40" as="targetPoint" />
            <Array as="points">
              <mxPoint x="90" y="60" />
              <mxPoint x="90" y="40" />
            </Array>
          </mxGeometry>
        </mxCell>
        <mxCell id="8XiK232bwKAHNI2Cz1TA-11" value="" style="endArrow=openThin;html=1;entryX=0.5;entryY=0;entryDx=0;entryDy=0;endFill=0;" edge="1" parent="8XiK232bwKAHNI2Cz1TA-2">
          <mxGeometry width="50" height="50" relative="1" as="geometry">
            <mxPoint x="132" y="10" as="sourcePoint" />
            <mxPoint x="132.32999999999998" y="60" as="targetPoint" />
          </mxGeometry>
        </mxCell>
        <mxCell id="8XiK232bwKAHNI2Cz1TA-12" value="" style="endArrow=openThin;html=1;entryX=0.5;entryY=0;entryDx=0;entryDy=0;endFill=0;" edge="1" parent="8XiK232bwKAHNI2Cz1TA-2">
          <mxGeometry width="50" height="50" relative="1" as="geometry">
            <mxPoint x="242.32999999999998" y="10" as="sourcePoint" />
            <mxPoint x="242.6599999999999" y="60" as="targetPoint" />
          </mxGeometry>
        </mxCell>
        <mxCell id="8XiK232bwKAHNI2Cz1TA-13" value="" style="endArrow=openThin;html=1;entryX=0.5;entryY=0;entryDx=0;entryDy=0;endFill=0;" edge="1" parent="8XiK232bwKAHNI2Cz1TA-2">
          <mxGeometry width="50" height="50" relative="1" as="geometry">
            <mxPoint x="352.26" y="10" as="sourcePoint" />
            <mxPoint x="352.5899999999999" y="60" as="targetPoint" />
          </mxGeometry>
        </mxCell>
        <mxCell id="8XiK232bwKAHNI2Cz1TA-14" value="" style="endArrow=openThin;html=1;entryX=0.5;entryY=0;entryDx=0;entryDy=0;endFill=0;" edge="1" parent="8XiK232bwKAHNI2Cz1TA-2">
          <mxGeometry width="50" height="50" relative="1" as="geometry">
            <mxPoint x="462.26" y="10" as="sourcePoint" />
            <mxPoint x="462.5899999999999" y="60" as="targetPoint" />
          </mxGeometry>
        </mxCell>
        <mxCell id="8XiK232bwKAHNI2Cz1TA-15" value="" style="endArrow=openThin;html=1;entryX=0.5;entryY=0;entryDx=0;entryDy=0;endFill=0;" edge="1" parent="8XiK232bwKAHNI2Cz1TA-2" target="8XiK232bwKAHNI2Cz1TA-8">
          <mxGeometry width="50" height="50" relative="1" as="geometry">
            <mxPoint x="130" y="10" as="sourcePoint" />
            <mxPoint x="450" y="10" as="targetPoint" />
            <Array as="points">
              <mxPoint x="573" y="10" />
            </Array>
          </mxGeometry>
        </mxCell>
        <mxCell id="8XiK232bwKAHNI2Cz1TA-16" value="[Participated]" style="text;html=1;strokeColor=none;fillColor=none;align=center;verticalAlign=middle;whiteSpace=wrap;rounded=0;fontSize=8;" vertex="1" parent="8XiK232bwKAHNI2Cz1TA-2">
          <mxGeometry x="155" y="20" width="10" as="geometry" />
        </mxCell>
        <mxCell id="8XiK232bwKAHNI2Cz1TA-17" value="[5 approved]" style="text;html=1;strokeColor=none;fillColor=none;align=center;verticalAlign=middle;whiteSpace=wrap;rounded=0;fontSize=8;" vertex="1" parent="8XiK232bwKAHNI2Cz1TA-2">
          <mxGeometry x="215" y="10" width="105" height="20" as="geometry" />
        </mxCell>
        <mxCell id="8XiK232bwKAHNI2Cz1TA-18" value="[Participate 3 project reviews]" style="text;html=1;strokeColor=none;fillColor=none;align=center;verticalAlign=middle;whiteSpace=wrap;rounded=0;fontSize=8;" vertex="1" parent="8XiK232bwKAHNI2Cz1TA-2">
          <mxGeometry x="350" y="10" width="70" height="20" as="geometry" />
        </mxCell>
        <mxCell id="8XiK232bwKAHNI2Cz1TA-19" value="[Participate project demo]" style="text;html=1;strokeColor=none;fillColor=none;align=center;verticalAlign=middle;whiteSpace=wrap;rounded=0;fontSize=8;" vertex="1" parent="8XiK232bwKAHNI2Cz1TA-2">
          <mxGeometry x="460" y="10" width="80" height="20" as="geometry" />
        </mxCell>
        <mxCell id="8XiK232bwKAHNI2Cz1TA-20" value="" style="endArrow=openThin;html=1;exitX=0.75;exitY=0;exitDx=0;exitDy=0;entryX=0.75;entryY=1;entryDx=0;entryDy=0;endFill=0;" edge="1" parent="8XiK232bwKAHNI2Cz1TA-2">
          <mxGeometry width="50" height="50" relative="1" as="geometry">
            <mxPoint x="370" y="165" as="sourcePoint" />
            <mxPoint x="370" y="90" as="targetPoint" />
          </mxGeometry>
        </mxCell>
        <mxCell id="8XiK232bwKAHNI2Cz1TA-21" value="" style="endArrow=openThin;html=1;exitX=0.5;exitY=1;exitDx=0;exitDy=0;entryX=0.5;entryY=0;entryDx=0;entryDy=0;endFill=0;" edge="1" parent="8XiK232bwKAHNI2Cz1TA-2">
          <mxGeometry width="50" height="50" relative="1" as="geometry">
            <mxPoint x="340" y="90" as="sourcePoint" />
            <mxPoint x="340" y="165" as="targetPoint" />
          </mxGeometry>
        </mxCell>
        <mxCell id="8XiK232bwKAHNI2Cz1TA-22" value="" style="endArrow=openThin;html=1;exitX=0.5;exitY=1;exitDx=0;exitDy=0;entryX=0.5;entryY=0;entryDx=0;entryDy=0;endFill=0;" edge="1" parent="8XiK232bwKAHNI2Cz1TA-2">
          <mxGeometry width="50" height="50" relative="1" as="geometry">
            <mxPoint x="450" y="90" as="sourcePoint" />
            <mxPoint x="450" y="165" as="targetPoint" />
          </mxGeometry>
        </mxCell>
        <mxCell id="8XiK232bwKAHNI2Cz1TA-23" value="Verify exam grade" style="html=1;shape=mxgraph.infographic.ribbonSimple;notch1=20;notch2=0;align=center;verticalAlign=middle;fontSize=14;fontStyle=0;fillColor=#FFFFFF;flipH=0;spacingRight=0;spacingLeft=14;rotation=0;" vertex="1" parent="8XiK232bwKAHNI2Cz1TA-2">
          <mxGeometry x="600" y="10" width="135" height="40" as="geometry" />
        </mxCell>
        <mxCell id="8XiK232bwKAHNI2Cz1TA-24" value="" style="endArrow=classic;html=1;exitX=0;exitY=0;exitDx=67.5;exitDy=40;exitPerimeter=0;entryX=0.5;entryY=0;entryDx=0;entryDy=0;" edge="1" parent="8XiK232bwKAHNI2Cz1TA-2" source="8XiK232bwKAHNI2Cz1TA-23" target="8XiK232bwKAHNI2Cz1TA-9">
          <mxGeometry width="50" height="50" relative="1" as="geometry">
            <mxPoint x="710" y="140" as="sourcePoint" />
            <mxPoint x="760" y="90" as="targetPoint" />
          </mxGeometry>
        </mxCell>
        <mxCell id="8XiK232bwKAHNI2Cz1TA-25" value="Teaching team" style="swimlane;startSize=20;horizontal=0;direction=east;" vertex="1" parent="8XiK232bwKAHNI2Cz1TA-1">
          <mxGeometry x="20" y="140" width="760" height="130" as="geometry">
            <mxRectangle x="20" y="120" width="690" height="20" as="alternateBounds" />
          </mxGeometry>
        </mxCell>
        <mxCell id="8XiK232bwKAHNI2Cz1TA-26" value="Confirm MA1" style="rounded=1;whiteSpace=wrap;html=1;" vertex="1" parent="8XiK232bwKAHNI2Cz1TA-25">
          <mxGeometry x="100" y="45" width="65" height="30" as="geometry" />
        </mxCell>
        <mxCell id="8XiK232bwKAHNI2Cz1TA-27" value="Verify MA2" style="rounded=1;whiteSpace=wrap;html=1;" vertex="1" parent="8XiK232bwKAHNI2Cz1TA-25">
          <mxGeometry x="210" y="45" width="65" height="30" as="geometry" />
        </mxCell>
        <mxCell id="8XiK232bwKAHNI2Cz1TA-28" value="Confirm MA3" style="rounded=1;whiteSpace=wrap;html=1;" vertex="1" parent="8XiK232bwKAHNI2Cz1TA-25">
          <mxGeometry x="320" y="45" width="65" height="30" as="geometry" />
        </mxCell>
        <mxCell id="8XiK232bwKAHNI2Cz1TA-29" value="Confirm MA4" style="rounded=1;whiteSpace=wrap;html=1;" vertex="1" parent="8XiK232bwKAHNI2Cz1TA-25">
          <mxGeometry x="430" y="45" width="65" height="30" as="geometry" />
        </mxCell>
        <mxCell id="8XiK232bwKAHNI2Cz1TA-30" value="[Review]" style="text;html=1;strokeColor=none;fillColor=none;align=center;verticalAlign=middle;whiteSpace=wrap;rounded=0;fontSize=8;" vertex="1" parent="8XiK232bwKAHNI2Cz1TA-25">
          <mxGeometry x="150" y="10" width="40" height="20" as="geometry" />
        </mxCell>
        <mxCell id="8XiK232bwKAHNI2Cz1TA-31" value="[Review]" style="text;html=1;strokeColor=none;fillColor=none;align=center;verticalAlign=middle;whiteSpace=wrap;rounded=0;fontSize=8;" vertex="1" parent="8XiK232bwKAHNI2Cz1TA-25">
          <mxGeometry x="260" y="10" width="40" height="20" as="geometry" />
        </mxCell>
        <mxCell id="8XiK232bwKAHNI2Cz1TA-32" value="[Review]" style="text;html=1;strokeColor=none;fillColor=none;align=center;verticalAlign=middle;whiteSpace=wrap;rounded=0;fontSize=8;" vertex="1" parent="8XiK232bwKAHNI2Cz1TA-25">
          <mxGeometry x="370" y="10" width="40" height="20" as="geometry" />
        </mxCell>
        <mxCell id="8XiK232bwKAHNI2Cz1TA-33" value="[Review]" style="text;html=1;strokeColor=none;fillColor=none;align=center;verticalAlign=middle;whiteSpace=wrap;rounded=0;fontSize=8;" vertex="1" parent="8XiK232bwKAHNI2Cz1TA-25">
          <mxGeometry x="480" y="10" width="40" height="20" as="geometry" />
        </mxCell>
        <mxCell id="8XiK232bwKAHNI2Cz1TA-34" value="[Waiting for review]" style="text;html=1;strokeColor=none;fillColor=none;align=center;verticalAlign=middle;whiteSpace=wrap;rounded=0;fontSize=8;" vertex="1" parent="8XiK232bwKAHNI2Cz1TA-25">
          <mxGeometry x="70" y="10" width="40" height="20" as="geometry" />
        </mxCell>
        <mxCell id="8XiK232bwKAHNI2Cz1TA-35" value="[Waiting for review]" style="text;html=1;strokeColor=none;fillColor=none;align=center;verticalAlign=middle;whiteSpace=wrap;rounded=0;fontSize=8;" vertex="1" parent="8XiK232bwKAHNI2Cz1TA-25">
          <mxGeometry x="185" y="10" width="40" height="20" as="geometry" />
        </mxCell>
        <mxCell id="8XiK232bwKAHNI2Cz1TA-36" value="[Waiting for review]" style="text;html=1;strokeColor=none;fillColor=none;align=center;verticalAlign=middle;whiteSpace=wrap;rounded=0;fontSize=8;" vertex="1" parent="8XiK232bwKAHNI2Cz1TA-25">
          <mxGeometry x="300" y="10" width="40" height="20" as="geometry" />
        </mxCell>
        <mxCell id="8XiK232bwKAHNI2Cz1TA-37" value="[Waiting for review]" style="text;html=1;strokeColor=none;fillColor=none;align=center;verticalAlign=middle;whiteSpace=wrap;rounded=0;fontSize=8;" vertex="1" parent="8XiK232bwKAHNI2Cz1TA-25">
          <mxGeometry x="410" y="10" width="40" height="20" as="geometry" />
        </mxCell>
        <mxCell id="8XiK232bwKAHNI2Cz1TA-38" value="Exam result" style="html=1;shape=mxgraph.infographic.ribbonSimple;notch1=0;notch2=20;align=center;verticalAlign=middle;fontSize=14;fontStyle=0;fillColor=#FFFFFF;rotation=0;" vertex="1" parent="8XiK232bwKAHNI2Cz1TA-25">
          <mxGeometry x="560" y="42.5" width="100" height="35" as="geometry" />
        </mxCell>
        <mxCell id="8XiK232bwKAHNI2Cz1TA-39" value="SAP" style="swimlane;startSize=20;horizontal=0;direction=east;" vertex="1" parent="8XiK232bwKAHNI2Cz1TA-1">
          <mxGeometry x="20" y="270" width="760" height="120" as="geometry">
            <mxRectangle x="20" y="120" width="690" height="20" as="alternateBounds" />
          </mxGeometry>
        </mxCell>
        <mxCell id="8XiK232bwKAHNI2Cz1TA-40" value="Register exam" style="html=1;shape=mxgraph.infographic.ribbonSimple;notch1=20;notch2=0;align=center;verticalAlign=middle;fontSize=14;fontStyle=0;fillColor=#FFFFFF;flipH=0;spacingRight=0;spacingLeft=14;rotation=0;" vertex="1" parent="8XiK232bwKAHNI2Cz1TA-39">
          <mxGeometry x="470" y="30" width="135" height="40" as="geometry" />
        </mxCell>
        <mxCell id="8XiK232bwKAHNI2Cz1TA-41" value="Exam registered" style="html=1;shape=mxgraph.infographic.ribbonSimple;notch1=0;notch2=20;align=center;verticalAlign=middle;fontSize=14;fontStyle=0;fillColor=#FFFFFF;rotation=0;" vertex="1" parent="8XiK232bwKAHNI2Cz1TA-39">
          <mxGeometry x="630" y="32.5" width="120" height="35" as="geometry" />
        </mxCell>
        <mxCell id="8XiK232bwKAHNI2Cz1TA-42" value="" style="endArrow=classic;html=1;exitX=1;exitY=0.5;exitDx=0;exitDy=0;exitPerimeter=0;entryX=0;entryY=0;entryDx=0;entryDy=17.5;entryPerimeter=0;" edge="1" parent="8XiK232bwKAHNI2Cz1TA-39" source="8XiK232bwKAHNI2Cz1TA-40" target="8XiK232bwKAHNI2Cz1TA-41">
          <mxGeometry width="50" height="50" relative="1" as="geometry">
            <mxPoint x="610" y="230" as="sourcePoint" />
            <mxPoint x="660" y="180" as="targetPoint" />
          </mxGeometry>
        </mxCell>
        <mxCell id="8XiK232bwKAHNI2Cz1TA-43" value="" style="endArrow=openThin;html=1;exitX=0.25;exitY=1;exitDx=0;exitDy=0;entryX=0.25;entryY=0;entryDx=0;entryDy=0;endFill=0;" edge="1" parent="8XiK232bwKAHNI2Cz1TA-1" source="8XiK232bwKAHNI2Cz1TA-4" target="8XiK232bwKAHNI2Cz1TA-26">
          <mxGeometry width="50" height="50" relative="1" as="geometry">
            <mxPoint x="200" y="170" as="sourcePoint" />
            <mxPoint x="250" y="120" as="targetPoint" />
          </mxGeometry>
        </mxCell>
        <mxCell id="8XiK232bwKAHNI2Cz1TA-44" value="" style="endArrow=openThin;html=1;exitX=0.75;exitY=0;exitDx=0;exitDy=0;entryX=0.75;entryY=1;entryDx=0;entryDy=0;endFill=0;" edge="1" parent="8XiK232bwKAHNI2Cz1TA-1" source="8XiK232bwKAHNI2Cz1TA-26" target="8XiK232bwKAHNI2Cz1TA-4">
          <mxGeometry width="50" height="50" relative="1" as="geometry">
            <mxPoint x="472.26" y="330" as="sourcePoint" />
            <mxPoint x="472.26" y="405" as="targetPoint" />
          </mxGeometry>
        </mxCell>
        <mxCell id="8XiK232bwKAHNI2Cz1TA-45" value="" style="endArrow=openThin;html=1;exitX=0.25;exitY=1;exitDx=0;exitDy=0;entryX=0.25;entryY=0;entryDx=0;entryDy=0;endFill=0;" edge="1" parent="8XiK232bwKAHNI2Cz1TA-1" source="8XiK232bwKAHNI2Cz1TA-5" target="8XiK232bwKAHNI2Cz1TA-27">
          <mxGeometry width="50" height="50" relative="1" as="geometry">
            <mxPoint x="320" y="175" as="sourcePoint" />
            <mxPoint x="320" y="100" as="targetPoint" />
          </mxGeometry>
        </mxCell>
        <mxCell id="8XiK232bwKAHNI2Cz1TA-46" value="" style="endArrow=openThin;html=1;exitX=0.75;exitY=0;exitDx=0;exitDy=0;entryX=0.75;entryY=1;entryDx=0;entryDy=0;endFill=0;" edge="1" parent="8XiK232bwKAHNI2Cz1TA-1" source="8XiK232bwKAHNI2Cz1TA-27" target="8XiK232bwKAHNI2Cz1TA-5">
          <mxGeometry width="50" height="50" relative="1" as="geometry">
            <mxPoint x="262.26" y="90" as="sourcePoint" />
            <mxPoint x="262.26" y="165" as="targetPoint" />
          </mxGeometry>
        </mxCell>
        <mxCell id="8XiK232bwKAHNI2Cz1TA-47" value="" style="endArrow=openThin;html=1;exitX=0.75;exitY=0;exitDx=0;exitDy=0;endFill=0;entryX=0.75;entryY=1;entryDx=0;entryDy=0;" edge="1" parent="8XiK232bwKAHNI2Cz1TA-1" source="8XiK232bwKAHNI2Cz1TA-29" target="8XiK232bwKAHNI2Cz1TA-7">
          <mxGeometry width="50" height="50" relative="1" as="geometry">
            <mxPoint x="500" y="90" as="sourcePoint" />
            <mxPoint x="530" y="100" as="targetPoint" />
          </mxGeometry>
        </mxCell>
        <mxCell id="8XiK232bwKAHNI2Cz1TA-48" value="" style="endArrow=classic;html=1;exitX=0.5;exitY=1;exitDx=0;exitDy=0;entryX=0;entryY=0;entryDx=40;entryDy=0;entryPerimeter=0;" edge="1" parent="8XiK232bwKAHNI2Cz1TA-1" source="8XiK232bwKAHNI2Cz1TA-8" target="8XiK232bwKAHNI2Cz1TA-38">
          <mxGeometry width="50" height="50" relative="1" as="geometry">
            <mxPoint x="640" y="190" as="sourcePoint" />
            <mxPoint x="593" y="180" as="targetPoint" />
          </mxGeometry>
        </mxCell>
        <mxCell id="8XiK232bwKAHNI2Cz1TA-49" value="" style="endArrow=classic;html=1;exitX=0;exitY=0;exitDx=40;exitDy=35;exitPerimeter=0;entryX=0;entryY=0;entryDx=67.5;entryDy=0;entryPerimeter=0;" edge="1" parent="8XiK232bwKAHNI2Cz1TA-1" source="8XiK232bwKAHNI2Cz1TA-38" target="8XiK232bwKAHNI2Cz1TA-40">
          <mxGeometry width="50" height="50" relative="1" as="geometry">
            <mxPoint x="710" y="270" as="sourcePoint" />
            <mxPoint x="760" y="220" as="targetPoint" />
          </mxGeometry>
        </mxCell>
        <mxCell id="8XiK232bwKAHNI2Cz1TA-50" value="" style="endArrow=classic;html=1;entryX=0;entryY=0;entryDx=101.25;entryDy=40;entryPerimeter=0;exitX=0;exitY=0;exitDx=75;exitDy=0;exitPerimeter=0;" edge="1" parent="8XiK232bwKAHNI2Cz1TA-1" source="8XiK232bwKAHNI2Cz1TA-41" target="8XiK232bwKAHNI2Cz1TA-23">
          <mxGeometry width="50" height="50" relative="1" as="geometry">
            <mxPoint x="700" y="520" as="sourcePoint" />
            <mxPoint x="750" y="470" as="targetPoint" />
          </mxGeometry>
        </mxCell>
      </root>
    </mxGraphModel>
  </diagram>
</mxfile>
